inDegrees=yes
name=ik_tiny_file
DataType=double
version=3
OpenSimVersion=4.4-2022-07-23-0e9fedc
endheader
time	pelvis_tilt	pelvis_list	pelvis_rotation	pelvis_tx	pelvis_ty	pelvis_tz	hip_flexion_r	hip_adduction_r	hip_rotation_r	knee_angle_r	knee_angle_r_beta	ankle_angle_r	subtalar_angle_r	mtp_angle_r	hip_flexion_l	hip_adduction_l	hip_rotation_l	knee_angle_l	knee_angle_l_beta	ankle_angle_l	subtalar_angle_l	mtp_angle_l	lumbar_extension	lumbar_bending	lumbar_rotation	arm_flex_r	arm_add_r	arm_rot_r	elbow_flex_r	pro_sup_r	wrist_flex_r	wrist_dev_r	arm_flex_l	arm_add_l	arm_rot_l	elbow_flex_l	pro_sup_l	wrist_flex_l	wrist_dev_l
5.94	-11.50147024336536	-20.58207236901851	-11.50011367355309	0	0.9399999999999999	0	42.33882987518122	-10.51963789325773	0	59.00320856832067	1.029800258758125	-4.986862703440798	0	0	42.33882987518122	-10.51963789325773	0	59.00320856832067	1.029800258758125	-4.986862703440798	0	0	14.48472676937156	3.025670297154943	-5.071894695172302	-47.76857321891377	50.84441398202494	71.07937548856896	0.01852909679595741	46.62719258055126	0	5.054691761028287	-9.368968815569398	-20.58819758680769	-13.21294623571268	0.08072506633218103	46.62719258055126	0	5.054691761028287
5.96	-11.50297912385213	-20.58205381193202	-11.50013365492239	0	0.9399999999999999	0	42.33925830349958	-10.51934543148882	0	59.0033342554387	1.029802452412162	-4.986865633006815	0	0	42.33925830349958	-10.51934543148882	0	59.0033342554387	1.029802452412162	-4.986865633006815	0	0	14.48329880650969	3.025486267640837	-5.072871352775458	-47.7762002441674	50.84326760450799	71.0728492961961	0.01852975040226227	46.62646754080622	0	5.054637162768165	-9.360337404131579	-20.58629167999673	-13.21271292642039	0.08118554458100126	46.62646754080622	0	5.054637162768165
5.98	-11.50331629602324	-20.58157970088875	-11.50024838667032	0	0.9399999999999999	0	42.33974931012266	-10.51901027031987	0	59.00347826595736	1.02980496586987	-4.986868990586299	0	0	42.33974931012266	-10.51901027031987	0	59.00347826595736	1.02980496586987	-4.986868990586299	0	0	14.48186983464496	3.028137240799722	-5.069209623160586	-47.76806635774149	50.84956349029252	71.08076099840821	0.01853660765839215	46.62563659883801	0	5.054574611832038	-9.362102192785793	-20.58721084638274	-13.20909635384026	0.08071719496833622	46.62563659883801	0	5.054574611832038
6	-11.50737225407744	-20.58131952784661	-11.50068319919928	0	0.9399999999999999	0	42.34016801758931	-10.51872473206678	0	59.00360112500899	1.029807110164837	-4.986871853190332	0	0	42.34016801758931	-10.51872473206678	0	59.00360112500899	1.029807110164837	-4.986871853190332	0	0	14.48583263357633	3.027513326073357	-5.070468352833172	-47.773641254682	50.84916554307689	71.07448136005701	0.01853336139157762	46.62492852848644	0	5.054521359006022	-9.358969369231263	-20.58592890293785	-13.21149999764075	0.08122924072589263	46.62492852848644	0	5.054521359006022
6.02	-11.50389260499582	-20.57938356155348	-11.50038803135153	0	0.9399999999999999	0	42.34057770659993	-10.51844548359196	0	59.00372135236356	1.029809208528025	-4.986874653887106	0	0	42.34057770659993	-10.51844548359196	0	59.00372135236356	1.029809208528025	-4.986874653887106	0	0	14.4848916962248	3.028254883187805	-5.068468206867939	-47.77757175155209	50.85342978879923	71.07706465595736	0.01854216258239949	46.6242359636308	0	5.054469303643737	-9.360147822527233	-20.58476928211942	-13.21150690476069	0.08121342243710668	46.6242359636308	0	5.054469303643737
6.04	-11.5167466388308	-20.58054130315848	-11.49839598638437	0	0.9399999999999999	0	42.34107561759146	-10.51810608537567	0	59.00386742364898	1.029811757952899	-4.986878057879474	0	0	42.34107561759146	-10.51810608537567	0	59.00386742364898	1.029811757952899	-4.986878057879474	0	0	14.49336850236752	3.024012948449494	-5.074620983548845	-47.76526733541844	50.85249166345495	71.08297292960044	0.01853591701583039	46.62339419192095	0	5.054406050919413	-9.35706339082307	-20.59119929994364	-13.20579330564241	0.08074149401237481	46.62339419192095	0	5.054406050919413
6.06	-11.50694536318556	-20.58043597156047	-11.49999452524869	0	0.9399999999999999	0	42.34149978919082	-10.51781712273981	0	59.00399187874341	1.029813930104067	-4.986880957448043	0	0	42.34149978919082	-10.51781712273981	0	59.00399187874341	1.029813930104067	-4.986880957448043	0	0	14.48725442667728	3.024602597632188	-5.071510184666195	-47.7772225752264	50.85335148284253	71.07737057837596	0.01854245756969662	46.62267739604211	0	5.054352228003289	-9.35794827052869	-20.58641833817206	-13.20700163654593	0.08112468837270197	46.62267739604211	0	5.054352228003289
6.08	-11.51729851191852	-20.57909839966057	-11.49703562622345	0	0.9399999999999999	0	42.34199168585139	-10.51748211399983	0	59.00413619665862	1.029816448926857	-4.986884319876909	0	0	42.34199168585139	-10.51748211399983	0	59.00413619665862	1.029816448926857	-4.986884319876909	0	0	14.49661987251397	3.02260448773307	-5.075581236622264	-47.76328470387111	50.85181034181327	71.08104201022874	0.01853393285221429	46.6218463030374	0	5.05428985181293	-9.359632738111674	-20.59258950306059	-13.20618671183662	0.08068349168238	46.6218463030374	0	5.05428985181293
